PathFileType	4	(x/y/z)	S08_M20_T04
DataRate	CameraRate	NumFrames	NumMarkers	Units	OrigDataRate	OrigDataStartFrame	OrigNumFrames
240	240	7	51	mm	240	290	463
Frame#	Time	Sternum			R.Acromium			L.Acromium			Top.Head			R.ASIS			L.ASIS			R.PSIS			L.PSIS			R.Great.Tro			L.Great.Tro			R.Iliac.Crest			L.Iliac.Crest			V.Sacral			R.Thigh.Upper.Post			R.Thigh.Lower.Ant			R.Thigh.Lower.Post			R.Thigh.Upper.Ant			R.Knee.Lat			R.Knee.Med			R.Shank.Upper.Post			R.Shank.Lower.Ant			R.Shank.Lower.Post			R.Shank.Upper.Ant			R.Ankle.Lat			R.Ankle.Med			R.Heel.Upper			R.Heel.Med			R.Heel.Lat			R.Toe.Lat			R.Toe.Med			R.Toe.Tip			L.Thigh.Upper.Post			L.Thigh.Lower.Ant			L.Thigh.Lower.Post			L.Thigh.Upper.Ant			L.Knee.Lat			L.Knee.Med			L.Shank.Upper.Post			L.Shank.Lower.Ant			L.Shank.Lower.Post			L.Shank.Upper.Ant			L.Ankle.Lat			L.Ankle.Med			L.Heel.Upper			L.Heel.Med			L.Heel.Lat			L.Toe.Lat			L.Toe.Med			L.Toe.Tip			Cervical.Spine			Back			
		X1	Y1	Z1	X2	Y2	Z2	X3	Y3	Z3	X4	Y4	Z4	X5	Y5	Z5	X6	Y6	Z6	X7	Y7	Z7	X8	Y8	Z8	X9	Y9	Z9	X10	Y10	Z10	X11	Y11	Z11	X12	Y12	Z12	X13	Y13	Z13	X14	Y14	Z14	X15	Y15	Z15	X16	Y16	Z16	X17	Y17	Z17	X18	Y18	Z18	X19	Y19	Z19	X20	Y20	Z20	X21	Y21	Z21	X22	Y22	Z22	X23	Y23	Z23	X24	Y24	Z24	X25	Y25	Z25	X26	Y26	Z26	X27	Y27	Z27	X28	Y28	Z28	X29	Y29	Z29	X30	Y30	Z30	X31	Y31	Z31	X32	Y32	Z32	X33	Y33	Z33	X34	Y34	Z34	X35	Y35	Z35	X36	Y36	Z36	X37	Y37	Z37	X38	Y38	Z38	X39	Y39	Z39	X40	Y40	Z40	X41	Y41	Z41	X42	Y42	Z42	X43	Y43	Z43	X44	Y44	Z44	X45	Y45	Z45	X46	Y46	Z46	X47	Y47	Z47	X48	Y48	Z48	X49	Y49	Z49	X50	Y50	Z50	X51	Y51	Z51	

290	1.2042	104.11	1185.8	351.54	2.9367	1421	528.56	-33.185	1450.2	193.8	6.9171	1742.4	375.04	74.214	976.16	475.93	101.34	974.91	244.03	-115.76	1001.3	373.41	-101.36	1001.4	280.35	-20.64	878.07	537.36	26.281	865.54	166.89	-24.668	1047.5	507.42	6.492	1053.2	197.34	-125.76	960.93	325.81	-109.3	698.65	515.35	-67.806	580.01	483.33	-131.52	612.4	493.6	-36.988	667.7	508.48	-139.15	499.65	470.43	-152.9	512.9	342.98	-278.02	358.15	468.26	-247.07	276.89	443	-309.95	288.99	455.9	-214.17	346.07	457.14	-378.16	135.57	408.31	-343.97	142.86	331.26	-435.53	109.77	357.6	-429.39	80.886	330.57	-437.87	84.586	392.45	NaN	NaN	NaN	-247.94	43.215	324	-184.59	44.822	374.35	94.206	659.13	181.1	210.88	616.73	205.58	148.1	587.87	200.53	161.55	687.56	180.44	209.6	510.12	217.88	213.21	510.38	344.62	237.13	322.72	217.28	337.78	276.21	234.5	267.82	256.86	232.24	300.07	341.32	220.1	374.55	111.07	243.07	393.88	132.22	328.57	346.06	58.932	296.16	376.83	42.236	329.17	367.58	37.509	265.81	518.12	124.3	224.28	531.68	149.9	336.2	571.41	197.1	283.1	-78.182	1481.8	361.02	-132.75	1198.9	365.19
291	1.2083	110.41	1185	351.2	9.0298	1420.3	528.03	-27.25	1449.3	193.25	12.44	1741.7	374.39	80.343	975.18	475.74	107.77	974.09	243.88	-109.48	1000.5	372.98	-94.875	1000.7	279.95	-15.048	877.23	536.95	32.844	864.97	166.49	-18.534	1046.6	507.15	12.968	1052.4	197.08	-119.46	960.22	325.3	-104.34	698.22	514.88	-63.089	579.35	483.2	-126.72	611.99	493.11	-32.044	666.98	508.3	-134.69	499.28	470.23	-148.02	512.38	342.72	-274.66	358.9	468.09	-244.48	277.34	442.9	-307.2	290.02	455.79	-210.97	346.28	457.03	-376.8	137.12	408.41	-342.42	144	331.4	-434.3	111.93	357.68	-428.48	83.06	330.59	-436.95	86.718	392.48	NaN	NaN	NaN	-247.69	43.212	324.04	-184.41	44.6	374.34	101.09	658.79	180.98	217.77	616.56	205.84	155.04	587.61	200.61	168.4	687.31	180.55	216.33	509.75	218.12	219.76	510.04	344.84	242.47	322.18	217.36	342.66	274.89	234.87	272.6	256.11	232.32	305.52	340.3	220.43	377.93	109.7	243.29	397.35	130.48	328.94	348.7	58.424	296.35	379.33	41.194	329.38	370.01	36.751	266.01	521.51	121.44	224.73	535.3	146.55	336.7	575.57	193.45	283.71	-72.212	1480.9	360.45	-126.5	1197.9	364.88
292	1.2125	116.76	1184.2	350.84	15.157	1419.6	527.47	-21.298	1448.4	192.68	17.962	1740.9	373.74	86.532	974.23	475.55	114.24	973.32	243.72	-103.16	999.83	372.55	-88.358	999.99	279.55	-9.3853	876.39	536.53	39.457	864.46	166.08	-12.329	1045.6	506.87	19.476	1051.7	196.83	-113.12	959.55	324.8	-99.303	697.81	514.42	-58.27	578.71	483.05	-121.82	611.59	492.6	-27.008	666.28	508.1	-130.13	498.91	470.03	-143.04	511.86	342.48	-271.2	359.69	467.91	-241.82	277.82	442.81	-304.35	291.1	455.7	-207.69	346.53	456.93	-375.37	138.72	408.54	-340.79	145.19	331.58	-432.99	114.18	357.8	-427.5	85.341	330.63	-435.97	88.937	392.53	NaN	NaN	NaN	-247.43	43.217	324.09	-184.23	44.395	374.33	108.03	658.51	180.87	224.69	616.45	206.1	162.04	587.4	200.69	175.3	687.12	180.67	223.09	509.43	218.37	226.33	509.74	345.05	247.76	321.7	217.42	347.46	273.58	235.25	277.28	255.38	232.38	310.92	339.3	220.77	381.08	108.34	243.5	400.63	128.71	329.3	351.05	58.019	296.53	381.53	40.192	329.57	372.1	36.071	266.2	524.66	118.42	225.17	538.72	142.97	337.17	579.59	189.53	284.31	-66.224	1480.1	359.87	-120.21	1197	364.57
293	1.2167	123.15	1183.5	350.46	21.316	1418.9	526.9	-15.329	1447.5	192.1	23.484	1740.2	373.09	92.78	973.29	475.33	120.74	972.59	243.55	-96.779	999.15	372.13	-81.812	999.36	279.16	-3.649	875.57	536.09	46.121	864	165.65	-6.0521	1044.7	506.6	26.015	1051.1	196.57	-106.73	958.91	324.3	-94.175	697.4	513.97	-53.345	578.07	482.9	-116.81	611.19	492.09	-21.874	665.59	507.89	-125.46	498.57	469.84	-137.95	511.33	342.24	-267.64	360.52	467.75	-239.05	278.34	442.76	-301.4	292.23	455.62	-204.3	346.81	456.85	-373.85	140.37	408.72	-339.06	146.42	331.8	-431.58	116.52	357.96	-426.43	87.731	330.7	-434.91	91.247	392.59	NaN	NaN	NaN	-247.17	43.23	324.15	-184.06	44.205	374.32	115.01	658.3	180.75	231.65	616.4	206.38	169.06	587.26	200.77	182.24	686.99	180.8	229.88	509.16	218.61	232.89	509.47	345.26	253	321.28	217.47	352.18	272.28	235.65	281.89	254.71	232.43	316.29	338.33	221.12	384.05	106.99	243.69	403.74	126.93	329.64	353.18	57.731	296.7	383.47	39.25	329.74	373.92	35.486	266.37	527.6	115.26	225.6	541.95	139.22	337.64	583.48	185.4	284.9	-60.217	1479.3	359.27	-113.87	1196.1	364.27
294	1.2208	129.59	1182.8	350.05	27.507	1418.3	526.32	-9.342	1446.6	191.49	29.006	1739.6	372.44	99.087	972.38	475.11	127.28	971.91	243.36	-90.349	998.51	371.71	-75.239	998.79	278.76	2.164	874.77	535.63	52.835	863.6	165.2	0.29581	1043.9	506.33	32.583	1050.5	196.31	-100.3	958.32	323.8	-88.954	697.01	513.51	-48.306	577.45	482.74	-111.7	610.79	491.57	-16.639	664.92	507.67	-120.66	498.23	469.66	-132.74	510.81	342	-263.96	361.38	467.6	-236.19	278.89	442.74	-298.35	293.4	455.56	-200.82	347.12	456.81	-372.23	142.07	408.95	-337.23	147.69	332.07	-430.07	118.95	358.15	-425.28	90.236	330.78	-433.76	93.652	392.68	NaN	NaN	NaN	-246.89	43.253	324.22	-183.9	44.029	374.32	122.02	658.15	180.65	238.63	616.38	206.66	176.09	587.17	200.85	189.21	686.92	180.93	236.68	508.95	218.85	239.42	509.24	345.46	258.21	320.91	217.51	356.84	271	236.05	286.44	254.08	232.47	321.62	337.4	221.47	386.87	105.67	243.87	406.72	125.16	329.98	355.11	57.569	296.87	385.19	38.383	329.9	375.5	35.009	266.54	530.36	111.99	226.03	545.03	135.31	338.11	587.25	181.07	285.48	-54.193	1478.6	358.67	-107.5	1195.3	363.98
295	1.225	136.06	1182.2	349.63	33.728	1417.7	525.72	-3.3392	1445.8	190.87	34.529	1739	371.78	105.45	971.5	474.87	133.84	971.29	243.16	-83.869	997.92	371.31	-68.641	998.27	278.37	8.0571	873.98	535.17	59.595	863.27	164.73	6.7141	1043	506.06	39.178	1049.9	196.05	-93.834	957.78	323.3	-83.634	696.62	513.06	-43.15	576.84	482.57	-106.47	610.4	491.04	-11.297	664.26	507.43	-115.74	497.9	469.48	-127.42	510.29	341.78	-260.17	362.27	467.46	-233.21	279.48	442.76	-295.19	294.61	455.52	-197.22	347.45	456.79	-370.52	143.83	409.24	-335.3	149	332.39	-428.46	121.49	358.39	-424.03	92.857	330.9	-432.52	96.156	392.79	NaN	NaN	NaN	-246.61	43.286	324.31	-183.75	43.868	374.31	129.03	658.08	180.55	245.6	616.41	206.94	183.12	587.13	200.93	196.2	686.9	181.07	243.48	508.79	219.08	245.89	509.04	345.64	263.4	320.62	217.53	361.46	269.77	236.46	290.94	253.51	232.5	326.92	336.52	221.83	389.57	104.4	244.04	409.59	123.43	330.31	356.9	57.539	297.05	386.72	37.604	330.05	376.89	34.649	266.71	532.96	108.64	226.46	547.97	131.29	338.57	590.94	176.6	286.06	-48.154	1477.9	358.06	-101.07	1194.5	363.7
296	1.2292	142.58	1181.6	349.18	39.978	1417.2	525.11	2.6786	1445.1	190.24	40.053	1738.4	371.12	111.87	970.65	474.61	140.43	970.72	242.93	-77.34	997.38	370.92	-62.022	997.82	277.98	14.033	873.21	534.68	66.4	863	164.25	13.202	1042.2	505.79	45.797	1049.4	195.79	-87.331	957.29	322.81	-78.208	696.24	512.61	-37.867	576.24	482.4	-101.11	610	490.51	-5.8433	663.62	507.18	-110.68	497.57	469.31	-121.98	509.77	341.58	-256.24	363.2	467.34	-230.11	280.1	442.81	-291.9	295.87	455.51	-193.49	347.81	456.81	-368.7	145.63	409.57	-333.25	150.35	332.77	-426.72	124.13	358.66	-422.68	95.601	331.04	-431.18	98.766	392.93	NaN	NaN	NaN	-246.3	43.331	324.4	-183.6	43.72	374.31	136.05	658.07	180.45	252.57	616.48	207.23	190.14	587.16	201.01	203.19	686.93	181.22	250.25	508.68	219.3	252.29	508.87	345.81	268.57	320.39	217.54	366.04	268.6	236.88	295.41	253.01	232.53	332.2	335.71	222.19	392.17	103.2	244.2	412.36	121.76	330.64	358.58	57.642	297.22	388.09	36.921	330.18	378.12	34.41	266.86	535.43	105.24	226.89	550.78	127.2	339.02	594.54	172.01	286.64	-42.099	1477.2	357.44	-94.606	1193.7	363.42
